<svg xmlns="http://www.w3.org/2000/svg" width="400" height="400" viewBox="0 0 400 400">
<rect width="400" height="400" rx="0" fill="#ffffff"/>
<g transform="translate(14.328,8.772) scale(0.92605)">
<path style=" stroke:none;fill-rule:nonzero;fill:#2b2330;fill-opacity:1;" d="M 352.03125 265.160156 C 359.296875 269.167969 337.855469 282.050781 327.246094 287.757812 C 282.871094 311.613281 233.359375 321.808594 182.894531 318.296875 C 134.480469 314.925781 86.988281 297.574219 46.292969 271.859375 L 58.933594 251.871094 C 85.820312 268.417969 113.433594 280.789062 143.769531 288.246094 C 202.085938 302.589844 262.816406 295.386719 315.691406 267.109375 C 322.839844 263.289062 329.148438 258.832031 335.664062 254.3125 C 340.96875 258.40625 346.070312 261.875 352.03125 265.160156 "/><path style=" stroke:none;fill-rule:nonzero;fill:#2b2330;fill-opacity:1;" d="M 135.988281 177.421875 L 135.714844 234.136719 L 106.855469 234.234375 L 106.871094 186.136719 C 106.875 183.09375 106.480469 177.761719 104.621094 175.730469 C 98.953125 169.523438 90.628906 169.210938 83.398438 171.6875 C 78.617188 173.328125 74.894531 176.859375 74.886719 182.25 L 74.8125 234.144531 L 45.90625 234.242188 L 45.84375 136.347656 L 74.660156 136.253906 L 75.015625 153.375 C 83.25 141.84375 89.300781 135.363281 103.839844 135.050781 C 116.675781 134.769531 127.621094 141.308594 133.023438 153.734375 C 142.96875 140.976562 149.300781 134.992188 166.054688 135.0625 C 181.664062 135.125 195.28125 147.089844 195.382812 163.707031 L 195.828125 234.140625 L 166.890625 234.199219 L 166.820312 181.234375 C 166.816406 177.457031 163.945312 173.96875 160.691406 172.367188 C 152.667969 168.421875 142.546875 169.910156 135.988281 177.421875 "/><path style=" stroke:none;fill-rule:nonzero;fill:#2b2330;fill-opacity:1;" d="M 319.792969 173.261719 C 305.492188 166.050781 286.925781 172.730469 286.902344 183.230469 L 286.800781 234.164062 L 257.84375 233.90625 L 257.882812 136.359375 L 286.613281 136.308594 L 287.199219 153.863281 C 294.820312 143.085938 303.582031 135.910156 315.765625 135.191406 C 326.789062 134.535156 337.59375 136.617188 345.554688 144.671875 C 350.582031 149.757812 354.675781 157.628906 354.6875 165.261719 L 354.757812 234.246094 L 325.867188 234.152344 L 325.878906 184.15625 C 325.878906 179.675781 323.949219 175.359375 319.792969 173.261719 "/><path style=" stroke:none;fill-rule:nonzero;fill:#2b2330;fill-opacity:1;" d="M 239.855469 234.222656 L 210.855469 234.222656 L 210.855469 137.222656 L 239.855469 137.222656 Z M 239.855469 234.222656 "/><path style=" stroke:none;fill-rule:nonzero;fill:#2b2330;fill-opacity:1;" d="M 242.050781 124.09375 C 233.609375 131.960938 220.203125 132.417969 211.296875 126.007812 C 205.222656 121.636719 202.300781 115.21875 203.339844 108.394531 C 204.300781 102.070312 208.378906 96.164062 215.296875 93.417969 C 226.800781 88.847656 243.550781 92.710938 247.042969 105.796875 C 248.785156 112.335938 247.40625 119.101562 242.050781 124.09375 "/>
</g></svg>