<?xml version="1.0" encoding="UTF-8"?>
<svg xmlns="http://www.w3.org/2000/svg" xmlns:xlink="http://www.w3.org/1999/xlink" width="1500pt" height="394pt" viewBox="0 0 1500 394" version="1.2">
<g id="surface1">
<path style=" stroke:none;fill-rule:nonzero;fill:#2b2330;fill-opacity:1;" d="M 352.03125 265.160156 C 359.296875 269.167969 337.855469 282.050781 327.246094 287.757812 C 282.871094 311.613281 233.359375 321.808594 182.894531 318.296875 C 134.480469 314.925781 86.988281 297.574219 46.292969 271.859375 L 58.933594 251.871094 C 85.820312 268.417969 113.433594 280.789062 143.769531 288.246094 C 202.085938 302.589844 262.816406 295.386719 315.691406 267.109375 C 322.839844 263.289062 329.148438 258.832031 335.664062 254.3125 C 340.96875 258.40625 346.070312 261.875 352.03125 265.160156 "/>
<path style=" stroke:none;fill-rule:nonzero;fill:#2b2330;fill-opacity:1;" d="M 135.988281 177.421875 L 135.714844 234.136719 L 106.855469 234.234375 L 106.871094 186.136719 C 106.875 183.09375 106.480469 177.761719 104.621094 175.730469 C 98.953125 169.523438 90.628906 169.210938 83.398438 171.6875 C 78.617188 173.328125 74.894531 176.859375 74.886719 182.25 L 74.8125 234.144531 L 45.90625 234.242188 L 45.84375 136.347656 L 74.660156 136.253906 L 75.015625 153.375 C 83.25 141.84375 89.300781 135.363281 103.839844 135.050781 C 116.675781 134.769531 127.621094 141.308594 133.023438 153.734375 C 142.96875 140.976562 149.300781 134.992188 166.054688 135.0625 C 181.664062 135.125 195.28125 147.089844 195.382812 163.707031 L 195.828125 234.140625 L 166.890625 234.199219 L 166.820312 181.234375 C 166.816406 177.457031 163.945312 173.96875 160.691406 172.367188 C 152.667969 168.421875 142.546875 169.910156 135.988281 177.421875 "/>
<path style=" stroke:none;fill-rule:nonzero;fill:#2b2330;fill-opacity:1;" d="M 863.3125 234.160156 L 834.308594 234.246094 L 834.363281 191.15625 C 834.367188 186.710938 835.203125 180.074219 832.6875 176.539062 C 824.230469 164.65625 802.941406 172 802.925781 179.328125 L 802.777344 234.136719 L 773.699219 234.242188 L 773.742188 136.398438 L 802.558594 136.257812 L 802.96875 152.574219 C 811.082031 142.183594 816.460938 135.914062 829.808594 135.074219 C 843.429688 134.21875 855.148438 140.683594 860.835938 154.289062 C 867.671875 142.949219 876.691406 136.148438 888.683594 135.058594 C 905.890625 133.492188 919.617188 143.25 922.890625 160.703125 L 923.390625 234.253906 L 894.332031 234.097656 L 894.3125 187.785156 C 894.894531 184.5 894.976562 178.898438 892.902344 176.296875 C 887.226562 169.179688 877.71875 168.945312 870.082031 172.363281 C 865.796875 174.28125 863.296875 177.585938 862.980469 182.296875 Z M 863.3125 234.160156 "/>
<path style=" stroke:none;fill-rule:nonzero;fill:#2b2330;fill-opacity:1;" d="M 727 186.675781 C 727.0625 183.476562 725.773438 179.171875 723.085938 176.984375 C 712.714844 168.546875 698.140625 168.085938 687.1875 175.453125 C 683.46875 177.953125 681.535156 181.832031 681.59375 185.722656 C 681.648438 189.539062 683.460938 193.542969 687.199219 196.046875 C 703.277344 206.8125 726.765625 198.683594 727 186.675781 M 727.621094 234.273438 L 726.671875 220.707031 C 713.5625 240.828125 684.808594 240.945312 667.925781 226.074219 C 645.074219 205.949219 645.332031 163.601562 669.714844 144.132812 C 686.808594 130.484375 713.757812 131.421875 726.625 150.507812 L 727.460938 137.289062 L 755.925781 137.230469 L 756.066406 234.195312 Z M 727.621094 234.273438 "/>
<path style=" stroke:none;fill-rule:nonzero;fill:#2b2330;fill-opacity:1;" d="M 433 179.964844 L 472.640625 234.140625 L 434.5 234.191406 L 410.128906 200.722656 L 398.914062 208.675781 L 398.875 234.167969 L 369.855469 234.132812 L 369.953125 97.375 L 398.703125 97.195312 L 399 162.535156 C 403.144531 161.339844 404.949219 159.683594 406.863281 157.222656 L 424.945312 137.207031 L 471.375 137.457031 Z M 433 179.964844 "/>
<path style=" stroke:none;fill-rule:nonzero;fill:#2b2330;fill-opacity:1;" d="M 1047.777344 180.019531 L 1087.476562 234.183594 L 1049.347656 234.183594 L 1024.785156 200.742188 L 1013.84375 208.578125 L 1013.800781 234.222656 L 984.851562 234.195312 L 984.867188 97.367188 L 1013.675781 97.175781 L 1013.929688 161.460938 C 1014.859375 161.625 1016.460938 161.566406 1017.839844 161.382812 L 1039.363281 137.285156 L 1086.351562 137.269531 Z M 1047.777344 180.019531 "/>
<path style=" stroke:none;fill-rule:nonzero;fill:#2b2330;fill-opacity:1;" d="M 1155.464844 180.015625 L 1195.148438 234.015625 L 1157.101562 234.222656 L 1132.40625 200.65625 L 1121.476562 208.953125 L 1121.554688 234.230469 L 1092.753906 234.199219 L 1092.789062 97.335938 L 1121.253906 97.214844 L 1121.730469 162.816406 C 1126.589844 160.644531 1128.039062 158.675781 1130.613281 155.953125 L 1147.199219 137.234375 L 1193.949219 137.339844 Z M 1155.464844 180.015625 "/>
<path style=" stroke:none;fill-rule:nonzero;fill:#2b2330;fill-opacity:1;" d="M 319.792969 173.261719 C 305.492188 166.050781 286.925781 172.730469 286.902344 183.230469 L 286.800781 234.164062 L 257.84375 233.90625 L 257.882812 136.359375 L 286.613281 136.308594 L 287.199219 153.863281 C 294.820312 143.085938 303.582031 135.910156 315.765625 135.191406 C 326.789062 134.535156 337.59375 136.617188 345.554688 144.671875 C 350.582031 149.757812 354.675781 157.628906 354.6875 165.261719 L 354.757812 234.246094 L 325.867188 234.152344 L 325.878906 184.15625 C 325.878906 179.675781 323.949219 175.359375 319.792969 173.261719 "/>
<path style=" stroke:none;fill-rule:nonzero;fill:#2b2330;fill-opacity:1;" d="M 610.800781 234.113281 L 581.957031 234.25 L 581.953125 137.226562 L 610.632812 137.289062 L 611.066406 157.625 C 619.394531 146.402344 628.179688 135.328125 643.78125 135.972656 L 643.9375 180.238281 C 627.820312 179.832031 612.792969 181.84375 610.949219 197.515625 Z M 610.800781 234.113281 "/>
<path style=" stroke:none;fill-rule:nonzero;fill:#2b2330;fill-opacity:1;" d="M 239.855469 234.222656 L 210.855469 234.222656 L 210.855469 137.222656 L 239.855469 137.222656 Z M 239.855469 234.222656 "/>
<path style=" stroke:none;fill-rule:nonzero;fill:#2b2330;fill-opacity:1;" d="M 242.050781 124.09375 C 233.609375 131.960938 220.203125 132.417969 211.296875 126.007812 C 205.222656 121.636719 202.300781 115.21875 203.339844 108.394531 C 204.300781 102.070312 208.378906 96.164062 215.296875 93.417969 C 226.800781 88.847656 243.550781 92.710938 247.042969 105.796875 C 248.785156 112.335938 247.40625 119.101562 242.050781 124.09375 "/>
<path style=" stroke:none;fill-rule:nonzero;fill:#2b2330;fill-opacity:1;" d="M 938.539062 137.222656 L 967.632812 137.222656 L 967.632812 234.222656 L 938.539062 234.222656 Z M 938.539062 137.222656 "/>
<path style=" stroke:none;fill-rule:nonzero;fill:#2b2330;fill-opacity:1;" d="M 965.328125 127.316406 C 957.898438 131.382812 948.636719 131.472656 941.484375 127.707031 C 934.90625 124.246094 930.660156 117.703125 930.824219 110.753906 C 930.992188 103.585938 935.207031 96.910156 942.535156 93.648438 C 948.402344 91.039062 956.628906 91.101562 962.714844 93.1875 C 970.238281 95.773438 974.621094 102.195312 975.21875 108.773438 C 975.917969 116.476562 972.703125 123.28125 965.328125 127.316406 "/>
<path style=" stroke:none;fill-rule:nonzero;fill:#2b2330;fill-opacity:1;" d="M 1438.699219 195.800781 C 1442.871094 192.921875 1444.269531 188.925781 1444.058594 184.710938 C 1443.472656 172.820312 1420.636719 164.269531 1404.289062 175.636719 C 1401.300781 177.714844 1398.976562 181.746094 1398.785156 184.796875 C 1398.570312 188.183594 1400.332031 192.5625 1403.269531 194.886719 C 1413.347656 202.859375 1427.925781 203.230469 1438.699219 195.800781 M 1472.652344 199.558594 C 1465.984375 224.53125 1442.558594 238.105469 1417.839844 236.425781 C 1405.738281 235.605469 1394.527344 232.050781 1385.199219 223.679688 C 1363.246094 203.972656 1363.019531 168.226562 1384.738281 148.363281 C 1394.5 139.4375 1406.058594 135.695312 1418.867188 134.992188 C 1443.527344 133.640625 1466.496094 147.835938 1472.8125 172.292969 C 1474.996094 180.75 1475.058594 190.550781 1472.652344 199.558594 "/>
<path style=" stroke:none;fill-rule:nonzero;fill:#2b2330;fill-opacity:1;" d="M 1323.5 173.632812 C 1308.347656 165.59375 1289.941406 173.089844 1289.921875 183.421875 L 1289.820312 234.234375 L 1260.859375 234.1875 L 1260.929688 136.339844 L 1289.644531 136.21875 L 1290.15625 153.847656 C 1301.308594 139.597656 1306.667969 135.851562 1323.113281 135.027344 C 1339.011719 134.230469 1356.0625 145.019531 1357.246094 162.644531 L 1357.960938 234.214844 L 1328.871094 234.199219 L 1328.839844 181.148438 C 1328.839844 178.355469 1325.914062 174.914062 1323.5 173.632812 "/>
<path style=" stroke:none;fill-rule:nonzero;fill:#2b2330;fill-opacity:1;" d="M 1249.566406 218.535156 C 1246.996094 232.15625 1231.597656 238.96875 1217.824219 236.429688 C 1210.519531 235.082031 1203.855469 231.144531 1200.585938 225.699219 C 1196.335938 218.609375 1195.578125 210.730469 1199.1875 203.53125 C 1203.765625 194.386719 1213.613281 189.386719 1223.84375 190.230469 C 1235.960938 189.21875 1246.703125 196.53125 1249.945312 208.214844 Z M 1249.566406 218.535156 "/>
<path style=" stroke:none;fill-rule:nonzero;fill:#2b2330;fill-opacity:1;" d="M 540.34375 176.1875 C 534.625 167.660156 525.578125 165.71875 516.859375 166.234375 C 508.304688 165.660156 499.890625 168.539062 495.359375 176.226562 Z M 516.28125 205.261719 C 524.769531 205.777344 531.800781 204.523438 538.773438 200.945312 L 569.324219 201.058594 C 562.296875 223.832031 540.8125 236.710938 517.882812 236.5 C 504.609375 236.375 492.53125 233.058594 482.519531 224.636719 C 469.921875 214.042969 464.15625 199.695312 464.835938 183.089844 C 465.988281 154.757812 489.703125 134.535156 517.914062 134.882812 C 542.050781 135.179688 563.800781 149.597656 569.207031 173.875 C 570.71875 180.660156 570.550781 187.957031 569.988281 195.207031 L 495.4375 195.226562 C 499.765625 202.625 507.816406 205.300781 516.28125 205.261719 "/>
</g>
</svg>
